<?xml version="1.0" encoding="UTF-8" standalone="no"?>
<svg
   xmlns:dc="http://purl.org/dc/elements/1.1/"
   xmlns:cc="http://creativecommons.org/ns#"
   xmlns:rdf="http://www.w3.org/1999/02/22-rdf-syntax-ns#"
   xmlns:svg="http://www.w3.org/2000/svg"
   xmlns="http://www.w3.org/2000/svg"
   viewBox="0 0 2355.5867 3324.9067"
   height="3324.9067"
   width="2355.5867"
   xml:space="preserve"
   id="svg2"
   version="1.1"><metadata
     id="metadata8"><rdf:RDF><cc:Work
         rdf:about=""><dc:format>image/svg+xml</dc:format><dc:type
           rdf:resource="http://purl.org/dc/dcmitype/StillImage" /></cc:Work></rdf:RDF></metadata><defs
     id="defs6"><clipPath
       id="clipPath20"
       clipPathUnits="userSpaceOnUse"><path
         id="path18"
         d="M 0,0 H 10391.9 V 14668 H 0 Z" /></clipPath></defs><g
     transform="matrix(1.3333333,0,0,-1.3333333,0,3324.9067)"
     id="g10"><g
       transform="scale(0.170007)"
       id="g12"><g
         id="g14"><g
           clip-path="url(#clipPath20)"
           id="g16"><path
             id="path22"
             style="fill:#4353ad;fill-opacity:1;fill-rule:nonzero;stroke:none"
             d="M 5189.59,0 945.738,1178.13 0,11785.5 H 10391.9 L 9445.15,1179.71 5189.59,0 v 0" /><path
             id="path24"
             style="fill:#485fb5;fill-opacity:1;fill-rule:nonzero;stroke:none"
             d="m 8634.65,1855.1 808.97,9063.1 H 5195.94 V 901.785 L 8634.65,1855.1 v 0" /><path
             id="path26"
             style="fill:#ededed;fill-opacity:1;fill-rule:nonzero;stroke:none"
             d="m 5195.94,3605.32 -5.71,-1.46 -1448.85,391.21 -92.63,1037.55 H 2342.79 l 182.25,-2042.68 2664.91,-739.8 5.99,1.65 z M 1933.77,9617.2 2052.02,8316.25 H 5195.94 V 9617.2 H 1933.77 Z m 234.3,-2633.13 116.59,-1300.94 H 5195.94 V 6984.07 H 2168.07" /><path
             id="path28"
             style="fill:#100f0d;fill-opacity:1;fill-rule:nonzero;stroke:none"
             d="m 6227.28,14668.1 h 1575.7 v -573 h -916.73 v -114.5 h 916.73 v -1317.9 h -1575.7 v 601.7 h 916.79 v 114.6 h -916.73 v 1289.1 z m -1890.81,0 h 1575.65 v -573 H 4995.4 v -114.5 h 916.72 v -1317.9 h -1575.6 v 601.7 h 916.73 v 114.6 h -916.82 v 1289.1 z m -1890.79,0 h 1575.63 v -658.9 h -916.7 v -658.9 h 916.78 v -658.9 H 2445.68 v 1976.7" /><path
             id="path30"
             style="fill:#ffffff;fill-opacity:1;fill-rule:nonzero;stroke:none"
             d="M 8215.49,6984.07 8450.31,9617.2 H 5191.46 V 8316.25 H 7024.6 L 6906.25,6984.07 H 5191.46 V 5683.13 H 6793.43 L 6642.38,3995.84 5191.41,3604.27 V 2250.79 l 2667.04,739.15 19.53,219.76 305.81,3425.03 31.7,349.34 v 0" /></g></g></g></g></svg>